<svg id="Component_12_1" data-name="Component 12 – 1" xmlns="http://www.w3.org/2000/svg" width="583" height="445" viewBox="0 0 583 445">
  <g id="Group_4" data-name="Group 4" transform="translate(-508 -1050)">
    <circle id="Ellipse_1" data-name="Ellipse 1" cx="17.5" cy="17.5" r="17.5" transform="translate(508 1050)" fill="#1fc41f"/>
    <path id="Path_3" data-name="Path 3" d="M-661.841-100.006l5.384,6.539,10.63-13.357" transform="translate(1179.906 1169.392)" fill="none" stroke="#fff" stroke-linecap="round" stroke-linejoin="round" stroke-width="4"/>
    <text id="Unlimited_Tasks" data-name="Unlimited Tasks" transform="translate(574 1076)" fill="#fff" font-size="25" font-family="Poppins-Regular, Poppins"><tspan x="0" y="0">Unlimited Tasks</tspan></text>
  </g>
  <g id="Group_5" data-name="Group 5" transform="translate(-508 -968)">
    <circle id="Ellipse_1-2" data-name="Ellipse 1" cx="17.5" cy="17.5" r="17.5" transform="translate(508 1050)" fill="#1fc41f"/>
    <path id="Path_3-2" data-name="Path 3" d="M-661.841-100.006l5.384,6.539,10.63-13.357" transform="translate(1179.906 1169.392)" fill="none" stroke="#fff" stroke-linecap="round" stroke-linejoin="round" stroke-width="4"/>
    <text id="SMS_TAsk_Reminders" data-name="SMS TAsk Reminders" transform="translate(574 1076)" fill="#fff" font-size="25" font-family="Poppins-Regular, Poppins"><tspan x="0" y="0">SMS Task Reminders</tspan></text>
  </g>
  <g id="Group_6" data-name="Group 6" transform="translate(-508 -886)">
    <circle id="Ellipse_1-3" data-name="Ellipse 1" cx="17.5" cy="17.5" r="17.5" transform="translate(508 1050)" fill="#1fc41f"/>
    <path id="Path_3-3" data-name="Path 3" d="M-661.841-100.006l5.384,6.539,10.63-13.357" transform="translate(1179.906 1169.392)" fill="none" stroke="#fff" stroke-linecap="round" stroke-linejoin="round" stroke-width="4"/>
    <text id="Confetti_explosion_upon_task_completion_" data-name="Confetti explosion upon task completion " transform="translate(574 1076)" fill="#fff" font-size="25" font-family="Poppins-Regular, Poppins"><tspan x="0" y="0">Confetti Explosion Upon Task Completion </tspan></text>
  </g>
  <g id="Group_7" data-name="Group 7" transform="translate(-508 -804)">
    <circle id="Ellipse_1-4" data-name="Ellipse 1" cx="17.5" cy="17.5" r="17.5" transform="translate(508 1050)" fill="#1fc41f"/>
    <path id="Path_3-4" data-name="Path 3" d="M-661.841-100.006l5.384,6.539,10.63-13.357" transform="translate(1179.906 1169.392)" fill="none" stroke="#fff" stroke-linecap="round" stroke-linejoin="round" stroke-width="4"/>
    <text id="social_media_anounsments" data-name="social media anounsments" transform="translate(574 1076)" fill="#fff" font-size="25" font-family="Poppins-Regular, Poppins"><tspan x="0" y="0">Social Media Anounsments</tspan></text>
  </g>
  <g id="Group_8" data-name="Group 8" transform="translate(-508 -722)">
    <circle id="Ellipse_1-5" data-name="Ellipse 1" cx="17.5" cy="17.5" r="17.5" transform="translate(508 1050)" fill="#1fc41f"/>
    <path id="Path_3-5" data-name="Path 3" d="M-661.841-100.006l5.384,6.539,10.63-13.357" transform="translate(1179.906 1169.392)" fill="none" stroke="#fff" stroke-linecap="round" stroke-linejoin="round" stroke-width="4"/>
    <text id="real_time_collaboration" data-name="real time collaboration" transform="translate(574 1076)" fill="#fff" font-size="25" font-family="Poppins-Regular, Poppins"><tspan x="0" y="0">Real Time Collaboration</tspan></text>
  </g>
  <g id="Group_9" data-name="Group 9" transform="translate(-508 -640)">
    <circle id="Ellipse_1-6" data-name="Ellipse 1" cx="17.5" cy="17.5" r="17.5" transform="translate(508 1050)" fill="#1fc41f"/>
    <path id="Path_3-6" data-name="Path 3" d="M-661.841-100.006l5.384,6.539,10.63-13.357" transform="translate(1179.906 1169.392)" fill="none" stroke="#fff" stroke-linecap="round" stroke-linejoin="round" stroke-width="4"/>
    <text id="other_awsome_features" data-name="other awsome features" transform="translate(574 1076)" fill="#fff" font-size="25" font-family="Poppins-Regular, Poppins"><tspan x="0" y="0">Other Awsome Features</tspan></text>
  </g>
</svg>
