<svg xmlns="http://www.w3.org/2000/svg" xmlns:xlink="http://www.w3.org/1999/xlink" width="240" height="217" viewBox="0 0 240 217">
  <defs>
    <clipPath id="clip-path">
      <rect width="240" height="217" fill="none"/>
    </clipPath>
  </defs>
  <g id="Repeat_Grid_1" data-name="Repeat Grid 1" clip-path="url(#clip-path)">
    <g transform="translate(-129 -1053)">
      <circle id="Ellipse_6" data-name="Ellipse 6" cx="12.5" cy="12.5" r="12.5" transform="translate(129 1053)" fill="#fff"/>
    </g>
    <g transform="translate(-80 -1053)">
      <circle id="Ellipse_6-2" data-name="Ellipse 6" cx="12.5" cy="12.5" r="12.5" transform="translate(129 1053)" fill="#fff"/>
    </g>
    <g transform="translate(-31 -1053)">
      <circle id="Ellipse_6-3" data-name="Ellipse 6" cx="12.5" cy="12.5" r="12.5" transform="translate(129 1053)" fill="#fff"/>
    </g>
    <g transform="translate(18 -1053)">
      <circle id="Ellipse_6-4" data-name="Ellipse 6" cx="12.5" cy="12.5" r="12.5" transform="translate(129 1053)" fill="#fff"/>
    </g>
    <g transform="translate(67 -1053)">
      <circle id="Ellipse_6-5" data-name="Ellipse 6" cx="12.5" cy="12.5" r="12.5" transform="translate(129 1053)" fill="#fff"/>
    </g>
    <g transform="translate(-129 -1008)">
      <circle id="Ellipse_6-6" data-name="Ellipse 6" cx="12.5" cy="12.5" r="12.5" transform="translate(129 1053)" fill="#fff"/>
    </g>
    <g transform="translate(-80 -1008)">
      <circle id="Ellipse_6-7" data-name="Ellipse 6" cx="12.5" cy="12.5" r="12.5" transform="translate(129 1053)" fill="#fff"/>
    </g>
    <g transform="translate(-31 -1008)">
      <circle id="Ellipse_6-8" data-name="Ellipse 6" cx="12.5" cy="12.5" r="12.5" transform="translate(129 1053)" fill="#fff"/>
    </g>
    <g transform="translate(18 -1008)">
      <circle id="Ellipse_6-9" data-name="Ellipse 6" cx="12.5" cy="12.5" r="12.5" transform="translate(129 1053)" fill="#fff"/>
    </g>
    <g transform="translate(67 -1008)">
      <circle id="Ellipse_6-10" data-name="Ellipse 6" cx="12.5" cy="12.5" r="12.5" transform="translate(129 1053)" fill="#fff"/>
    </g>
    <g transform="translate(-129 -963)">
      <circle id="Ellipse_6-11" data-name="Ellipse 6" cx="12.5" cy="12.5" r="12.5" transform="translate(129 1053)" fill="#fff"/>
    </g>
    <g transform="translate(-80 -963)">
      <circle id="Ellipse_6-12" data-name="Ellipse 6" cx="12.5" cy="12.5" r="12.5" transform="translate(129 1053)" fill="#fff"/>
    </g>
    <g transform="translate(-31 -963)">
      <circle id="Ellipse_6-13" data-name="Ellipse 6" cx="12.5" cy="12.5" r="12.5" transform="translate(129 1053)" fill="#fff"/>
    </g>
    <g transform="translate(18 -963)">
      <circle id="Ellipse_6-14" data-name="Ellipse 6" cx="12.5" cy="12.5" r="12.5" transform="translate(129 1053)" fill="#fff"/>
    </g>
    <g transform="translate(67 -963)">
      <circle id="Ellipse_6-15" data-name="Ellipse 6" cx="12.5" cy="12.5" r="12.5" transform="translate(129 1053)" fill="#fff"/>
    </g>
    <g transform="translate(-129 -918)">
      <circle id="Ellipse_6-16" data-name="Ellipse 6" cx="12.5" cy="12.5" r="12.5" transform="translate(129 1053)" fill="#fff"/>
    </g>
    <g transform="translate(-80 -918)">
      <circle id="Ellipse_6-17" data-name="Ellipse 6" cx="12.5" cy="12.5" r="12.5" transform="translate(129 1053)" fill="#fff"/>
    </g>
    <g transform="translate(-31 -918)">
      <circle id="Ellipse_6-18" data-name="Ellipse 6" cx="12.5" cy="12.5" r="12.5" transform="translate(129 1053)" fill="#fff"/>
    </g>
    <g transform="translate(18 -918)">
      <circle id="Ellipse_6-19" data-name="Ellipse 6" cx="12.5" cy="12.5" r="12.5" transform="translate(129 1053)" fill="#fff"/>
    </g>
    <g transform="translate(67 -918)">
      <circle id="Ellipse_6-20" data-name="Ellipse 6" cx="12.5" cy="12.5" r="12.5" transform="translate(129 1053)" fill="#fff"/>
    </g>
    <g transform="translate(-129 -873)">
      <circle id="Ellipse_6-21" data-name="Ellipse 6" cx="12.5" cy="12.5" r="12.5" transform="translate(129 1053)" fill="#fff"/>
    </g>
    <g transform="translate(-80 -873)">
      <circle id="Ellipse_6-22" data-name="Ellipse 6" cx="12.5" cy="12.5" r="12.5" transform="translate(129 1053)" fill="#fff"/>
    </g>
    <g transform="translate(-31 -873)">
      <circle id="Ellipse_6-23" data-name="Ellipse 6" cx="12.5" cy="12.5" r="12.5" transform="translate(129 1053)" fill="#fff"/>
    </g>
    <g transform="translate(18 -873)">
      <circle id="Ellipse_6-24" data-name="Ellipse 6" cx="12.5" cy="12.5" r="12.5" transform="translate(129 1053)" fill="#fff"/>
    </g>
    <g transform="translate(67 -873)">
      <circle id="Ellipse_6-25" data-name="Ellipse 6" cx="12.5" cy="12.5" r="12.5" transform="translate(129 1053)" fill="#fff"/>
    </g>
  </g>
</svg>
