<svg xmlns="http://www.w3.org/2000/svg" width="50.59" height="27.797" viewBox="0 0 50.59 27.797">
  <g id="Icon_ionic-ios-videocam" data-name="Icon ionic-ios-videocam" transform="translate(-2.25 -9)">
    <path id="Path_1" data-name="Path 1" d="M35.935,10.8a1.986,1.986,0,0,0-1.05.293l-9.768,5.929a.921.921,0,0,0-.452.782v8.252a.921.921,0,0,0,.452.782l9.768,5.929a2.09,2.09,0,0,0,1.05.293h2.349a.944.944,0,0,0,.971-.923V11.723a.951.951,0,0,0-.971-.923Z" transform="translate(13.585 0.98)" fill="#8b8b8b"/>
    <path id="Path_2" data-name="Path 2" d="M29.521,36.8H8.066A5.726,5.726,0,0,1,2.25,31.216V14.581A5.716,5.716,0,0,1,8.054,9H29.51a5.716,5.716,0,0,1,5.8,5.581V31.205A5.7,5.7,0,0,1,29.521,36.8Z" transform="translate(0)" fill="#8b8b8b"/>
  </g>
</svg>
